<svg width="24" height="24" fill="none" xmlns="http://www.w3.org/2000/svg"><path fill-rule="evenodd" clip-rule="evenodd" d="M12.41 3.088l10 4.5c.787.354.787 1.47 0 1.824l-10 4.5a1 1 0 01-.82 0l-10-4.5c-.787-.354-.787-1.47 0-1.824l10-4.5a1 1 0 01.82 0zM4.437 8.5L12 11.903 19.563 8.5 12 5.097 4.437 8.5z" fill="#050038"/><path d="M4.624 15.584L12 18.904l7.376-3.32-1.727-.648a1 1 0 01.702-1.872l4 1.5c.836.313.873 1.482.06 1.848l-10 4.5a1 1 0 01-.821 0l-10-4.5c-.814-.366-.777-1.535.059-1.848l4-1.5a1 1 0 11.702 1.872l-1.727.648z" fill="#050038"/></svg>