<svg width="24" height="24" fill="none" xmlns="http://www.w3.org/2000/svg"><path d="M12 2a4.002 4.002 0 013.758 2.628L14 6.386V6a2 2 0 10-4 0v4.386l-2 2V6a4 4 0 014-4z" fill="#050038"/><path fill-rule="evenodd" clip-rule="evenodd" d="M16 9.414l4.707-4.707a1 1 0 00-1.414-1.414l-16 16a1 1 0 101.414 1.414l1.847-1.847A7.972 7.972 0 0011 20.938V22a1 1 0 102 0v-1.062A8.001 8.001 0 0020 13v-3a1 1 0 10-2 0v3a6 6 0 01-10.03 4.445l1.416-1.417A4 4 0 0016 13V9.414zm-2 2l-3.192 3.192A2 2 0 0014 13v-1.586z" fill="#050038"/><path d="M6 13c0 .43.045.85.131 1.255L4.526 15.86A7.981 7.981 0 014 13v-3a1 1 0 012 0v3z" fill="#050038"/></svg>