<svg width="24" height="24" fill="none" xmlns="http://www.w3.org/2000/svg"><path fill-rule="evenodd" clip-rule="evenodd" d="M7.025 7.841c0 .422.034.809.102 1.159h2.2a3.456 3.456 0 01-.094-.24c-.099-.281-.149-.629-.149-1.043 0-.546.087-.997.26-1.353.175-.356.406-.637.696-.844.29-.207.62-.356.992-.447a4.84 4.84 0 011.154-.136c.43 0 .794.037 1.092.111.298.075.566.153.806.236.24.083.451.162.633.236.182.074.372.112.57.112.315 0 .56-.095.733-.286.174-.19.26-.41.26-.658 0-.347-.16-.633-.484-.856a3.78 3.78 0 00-1.166-.522 7.893 7.893 0 00-1.402-.248A14.34 14.34 0 0012.038 3c-1.556 0-2.78.43-3.673 1.291-.894.86-1.34 2.044-1.34 3.55zM18.999 11H5.001C4.448 11 4 11.444 4 12c0 .552.445 1 1 1h7.377c.4.15.775.318 1.124.502.15.083.31.182.484.298.174.116.327.273.46.472.131.198.243.438.334.72.091.281.137.62.137 1.018 0 .976-.277 1.73-.832 2.259-.554.53-1.385.794-2.493.794-.48 0-.91-.045-1.29-.136-.381-.091-.72-.19-1.018-.298a20.918 20.918 0 01-.782-.298 1.63 1.63 0 00-.608-.136.81.81 0 00-.632.297.992.992 0 00-.261.67c0 .332.165.613.496.845.331.232.732.422 1.204.57.471.15.967.257 1.489.324.52.066.98.099 1.377.099a6.6 6.6 0 002.171-.348 4.886 4.886 0 001.724-1.005 4.59 4.59 0 001.13-1.626c.272-.646.409-1.374.409-2.185 0-1.093-.227-1.94-.682-2.545a5.457 5.457 0 00-.236-.291H19c.553 0 1.001-.444 1.001-1 0-.552-.445-1-1-1z" fill="#050038"/></svg>